<svg xmlns:inkscape="http://www.inkscape.org/namespaces/inkscape" xmlns:sodipodi="http://sodipodi.sourceforge.net/DTD/sodipodi-0.dtd" xmlns="http://www.w3.org/2000/svg" xmlns:svg="http://www.w3.org/2000/svg" id="Layer_1" x="0px" y="0px" viewBox="0 0 2834.646 1562.087" style="enable-background:new 0 0 2834.646 1562.087;" xml:space="preserve" sodipodi:docname="BRAND LOGO-01.svgz"><defs id="defs40"></defs><g id="g35">	<path style="fill:#FFFFFF;" d="M2732.876,457.153c-44.689-123.849-291.71-264.737-956.27-301.695l16.467-14.8l1.646-1.48   l-125.299-25.092L1613.125,0l-56.113,113.689l-125.449,17.506l0.099,0.097l15.216,14.953c-9.306-0.033-18.666-0.052-28.095-0.052   c-936.776,0-1274.055,145.226-1317.03,310.96c0,0-33.872,108.6-33.872,382.944c0,274.323,33.872,396.125,33.872,396.125   c47.203,143.806,721.417,310.96,1305.474,310.96c584.046,0,1282.179-158.449,1325.649-310.96c0,0,33.883-139.222,33.883-396.125   C2766.759,583.184,2732.876,457.153,2732.876,457.153z M490.644,1271.941H191.092c-19.429-16.021-32.196-32.019-37.307-47.73   c0,0-0.051-0.187-0.15-0.56h337.009V1271.941z M490.644,1175.349H143.909c-2.212-13.242-4.611-29.255-6.993-48.129h353.727   V1175.349z M490.655,1078.876H131.576c-1.429-14.894-2.786-30.986-4.02-48.301h363.099V1078.876z M1757.977,154.456l-23.212,20.865   l-45.039,40.484l18.088,105.425l-94.687-49.775l-94.687,49.775l18.088-105.425l-48.899-47.663l-22.374-21.808l-5.327-5.192   l63.272-9.197l42.583-6.19l47.344-95.925l47.343,95.925l56.456,11.305l49.4,9.892L1757.977,154.456z M2680.849,1224.21   c-4.494,15.91-16.279,31.886-34.422,47.73h-291.936v-48.301h326.492C2680.895,1224.017,2680.849,1224.21,2680.849,1224.21z    M2690.053,1175.284h-335.562v-48.602h342.492C2694.601,1145.574,2692.223,1161.798,2690.053,1175.284z M2702.393,1078.381   h-347.902v-47.806h352.052C2705.26,1047.593,2703.859,1063.536,2702.393,1078.381z" id="path2"></path>	<radialGradient id="SVGID_1_" cx="1417.3218" cy="846.6893" r="1034.5652" gradientUnits="userSpaceOnUse">		<stop offset="0" style="stop-color:#00B2F0" id="stop4"></stop>		<stop offset="0.0246" style="stop-color:#00B2F0" id="stop6"></stop>		<stop offset="0.4729" style="stop-color:#0B4CA1" id="stop8"></stop>		<stop offset="0.6897" style="stop-color:#2C2D8C" id="stop10"></stop>		<stop offset="1" style="stop-color:#2C2D8C" id="stop12"></stop>	</radialGradient>	<path style="fill:url(#SVGID_1_);" d="M2141.742,709.936c0.689,6.617-0.441,12.331-3.357,17.409   c-0.646,1.636-2.389,2.669-5.219,3.25c-2.84,0.721-5.272,0.678-7.273,0.161c-5.477,0.797-9.48-0.753-11.933-5.078   c-2.55-4.185-3.433-10.491-2.69-18.496c5.068-32.129,10.146-64.14,15.214-96.032   C2131.573,644.236,2136.663,677.173,2141.742,709.936z M1543.964,1104.551l-8.275,47.086c-0.355,3.938,0.269,6.907,1.862,8.888   c1.614,1.98,4.11,2.668,7.478,2.066c1.237,0.204,2.754,0.108,4.541-0.302c1.775-0.387,2.84-0.979,3.196-1.765   c1.786-2.572,2.399-5.423,1.872-8.597L1543.964,1104.551z M897.122,1078.195h-11.093c-1.593,0-2.744,0.796-3.443,2.367   c-0.355,0.796-0.538,1.679-0.538,2.668v3.261v53.594v5.348c0,1.969,0.183,3.25,0.538,3.831c0.345,0.592,0.969,1.001,1.851,1.183   h2.378h11.621c4.239,0,7.037-2.012,8.468-6.068c1.41-4.046,2.109-9.512,2.109-16.441v-6.359v-4.885v-4.734v-5.627   c0-10.846-1.023-18.26-3.045-22.209C903.944,1080.164,900.995,1078.195,897.122,1078.195z M348.09,661.505   c-4.067,28.45-8.156,56.683-12.255,84.68c-0.549,6.865,0.506,11.998,3.131,15.075c2.529,3.207,6.521,3.831,11.879,2.206   c2.002,0.076,4.401-0.312,7.177-1.421c2.787-1.011,4.466-2.205,5.047-3.723c2.743-4.906,3.68-10.071,2.819-15.655   C359.915,715.326,353.986,688.254,348.09,661.505z M2354.491,1175.403v48.182h326.505c-0.005,0.019-0.008,0.035-0.013,0.054   h-326.492v48.301h291.936c-150.414,131.353-738.24,253.621-1238.804,253.621c-497.72,0-1063.602-127.519-1216.53-253.621h299.552   v-48.29h0.021v-48.301h-0.021v-48.129h0.021v-48.301H131.58c-0.001-0.014-0.003-0.028-0.004-0.043h359.079v-48.301H127.556   c-3.713-52.125-6.298-115.331-6.298-190.288c0-265.866,32.527-371.108,32.527-371.108   c41.259-160.562,364.965-301.254,1263.907-301.362h1.936c16.66,0.002,33.118,0.06,49.377,0.172l53.34,52.417L1500.91,345.36   l112.215-58.997l112.225,58.997l-21.391-124.61l49.458-44.451c645.038,35.033,884.318,172.282,927.431,292.879   c0,0,32.538,122.135,32.538,371.108c0,73.566-2.841,137.173-6.844,190.288h-352.052v47.806v0.495v47.656v0.15v48.602V1175.403z    M1539.92,495.095c3.787,3.734,6.735,8.038,8.974,13.159c2.13,5.262,3.647,9.383,4.455,12.503c0.914,3.121,1.302,7.08,1.259,12.03   c-0.506,97.71-1.011,195.431-1.517,293.131c-0.022,4.089-0.441,7.758-1.378,11.287c-0.516,2.249-1.753,5.488-3.701,9.705   c-1.851,4.229-4.099,7.188-6.735,9.006c-0.14,29.568-0.28,59.125-0.42,88.682c44.514,0.022,89.027,0.065,133.552,0.119   c0.28-29.31,0.57-58.609,0.85-87.919c-2.517-1.851-4.723-4.659-6.412-8.748c-1.679-3.927-2.873-7.586-3.745-10.954   c-0.883-3.239-1.249-6.747-1.216-10.244c0.892-97.033,1.786-194.076,2.679-291.13c0.043-4.476,0.699-8.662,1.862-12.557   c1.28-3.863,2.733-8.016,4.723-12.438c1.904-4.261,4.799-8.091,8.629-11.566c0.269-27.072,0.527-54.155,0.797-81.226   c-47.365-2.184-94.794-3.755-142.267-4.746C1540.167,440.489,1540.048,467.786,1539.92,495.095z M1227.126,413.54   c0.226,31.258,0.452,62.515,0.678,93.751c3.185,2.593,5.875,6.337,8.081,11.491c2.195,5.004,3.55,9.211,3.981,12.428   c0.527,3.378,0.774,8.726,0.828,16.334c0.603,92.89,1.227,185.758,1.84,278.626c0.022,3.529-0.452,7.198-1.453,10.717   c-0.99,3.529-2.281,7.198-3.971,11.018c-1.7,3.669-3.916,6.499-6.434,8.339c0.215,29.471,0.408,58.932,0.634,88.403   c42.351-0.043,84.724-0.064,127.074-0.075c-0.064-29.708-0.118-59.416-0.194-89.135c-2.636-1.69-4.981-5.229-7.123-10.308   c-2.238-5.079-3.282-11.449-3.292-19.088c-0.043-18.055-0.097-36.121-0.151-54.176c-0.011-3.949-0.032-9.759-0.054-17.399   c-0.01-3.54,0.302-6.649,0.807-9.339c0.291-0.979,3.239-1.42,8.953-1.442c2.001-0.021,4.003-0.021,6.004-0.021   c3.465-0.032,6.316,1.388,8.554,4.067c1.227,1.27,2.658,3.238,4.304,5.94c3.454,5.358,5.81,11.018,7.133,17.097   c1.227,5.94,1.937,12.6,1.948,19.669l0.194,154.124c39.069-0.01,78.139,0,117.196,0.022c0.097-29.6,0.194-59.201,0.291-88.791   c-2.528-1.839-4.95-5.251-7.059-10.491c-2.12-5.1-3.217-11.47-3.196-18.959c0.064-20.271,0.118-40.532,0.172-60.815   c0.064-20.918-2.926-37.057-8.92-48.689c-3.745-7.231-11.879-16.613-24.21-28.266c-1.528-1.291-2.238-3.691-2.238-7.371   c0.01-3.96,0.936-6.65,2.668-7.919c14.515-11.545,24.673-29.299,30.472-53.304c4.443-18.195,6.682-43.061,6.778-74.749   c0.108-35.066-8.21-66.42-25.038-93.74c-16.925-27.309-37.036-41.039-60.449-41.017   C1350.305,410.527,1288.672,411.539,1227.126,413.54z M922.819,432.165c0.43,26.749,0.861,53.509,1.302,80.258   c3.82,3.238,6.844,7.101,9.06,11.847c2.238,4.874,3.83,8.726,4.799,11.664c0.85,2.937,1.323,6.725,1.388,11.502   c1.517,94.396,3.023,188.761,4.529,283.082c0.054,3.959-0.28,7.51-1.044,10.932c-0.57,2.184-1.743,5.348-3.486,9.458   c-1.862,4.131-4.046,7.015-6.542,8.834c0.463,28.46,0.925,56.92,1.388,85.369c87.564-0.194,175.149-0.345,262.734-0.441   c-0.516-63.558-1.054-127.128-1.581-190.697c-33.862,0.506-67.723,1.13-101.552,1.883c0.139,12.342,0.29,24.673,0.441,37.014   c0.054,6.112-0.387,11.147-1.355,14.914c-0.969,3.776-2.54,8.113-4.81,13.288c-2.173,5.057-4.863,8.834-7.973,10.975   c-3.229,2.27-5.951,3.41-8.178,3.443c-3.454,0.054-6.897,0.108-10.34,0.162c-4.864,0.075-7.801-0.71-8.641-2.507   c-0.624-0.829-0.968-3.723-1.032-8.425c-0.033-2.626-0.086-6.919-0.161-12.6c-0.269-20.583-0.527-41.167-0.807-61.75   c-0.054-4.294,0.108-8.178,0.57-11.524c0.366-3.184,0.829-5.552,1.431-6.811c0.753-4.465,2.464-6.725,5.09-6.8   c21.724-0.625,43.459-1.195,65.194-1.69c-0.366-33.785-0.732-67.561-1.097-101.347c-21.66,0.711-43.33,1.507-64.979,2.378   c-3.153,0.14-5.402-0.602-6.553-2.356c-0.829-1.216-1.388-4.917-1.463-11.018c-0.033-2.217-0.075-5.272-0.129-9.146   c-0.215-16.527-0.42-33.054-0.646-49.582c-0.032-2.636-0.075-6.661-0.151-11.782c-0.032-2.216,0.248-4.573,0.829-7.242   c0.495-1.409,3.551-2.13,8.963-2.41c2.722-0.14,5.455-0.28,8.177-0.42c2.862-0.14,5.842,0.549,8.834,2.206   c2.98,1.517,5.466,4.045,7.145,7.446c3.045,5.993,4.724,9.813,5.358,11.588c1.162,3.433,1.83,7.575,1.894,12.449   c0.097,8.716,0.194,17.442,0.301,26.167c34.711-1.399,69.476-2.56,104.252-3.496c-0.484-57.394-0.958-114.797-1.442-172.201   C1102.294,418.274,1012.298,423.945,922.819,432.165z M506.798,946.717c-0.441-25.802-0.883-51.604-1.334-77.407   c-2.959-2.517-5.53-6.122-7.93-10.684c-2.389-4.67-3.636-7.231-3.959-8.048c-0.936-2.228-1.485-4.584-1.84-7.188   c-20.454-114.388-40.683-225.904-60.556-334.116c-50.948,11.987-101.573,25.372-151.789,40.393   c-15.57,109.138-31.548,214.692-48.032,316.341c-0.85,3.077-1.721,6.154-2.582,9.21c-1.399,2.948-3.411,5.294-5.907,7.07v66.281   c38.994-0.301,78.009-0.603,117.014-0.861c-0.236-24.166-0.463-48.333-0.71-72.521c-1.098,0.076-2.809-0.506-5.133-1.807   c-1.118-0.592-2.324-1.399-3.443-2.443c-3.433-2.539-5.165-6.23-5.219-11.126c0-1.893-0.021-3.766-0.032-5.649   c-0.043-3.809,1.023-7.596,3.293-11.244c0.893-1.388,1.593-2.314,2.087-2.787c1.689-1.431,3.185-2.314,4.283-2.4   c11.771-0.914,23.564-1.786,35.346-2.636c1.109-0.075,2.819,0.699,5.154,2.324c0.506,0.302,1.41,0.915,2.529,1.97   c2.345,3.324,3.496,7.08,3.54,10.91c0.022,1.937,0.043,3.895,0.076,5.853c0.043,4.271-1.205,8.177-3.874,11.685   c-2.679,3.518-4.971,5.53-6.961,5.961c0.29,24.575,0.57,49.14,0.861,73.705C416.706,947.212,461.758,946.954,506.798,946.717z    M553.136,946.48c36.035-0.172,72.07-0.333,108.115-0.495c-0.506-26.556-1.022-53.122-1.539-79.688   c-2.658-1.582-4.82-4.186-6.607-7.672c-1.786-3.497-3.163-6.747-4.024-9.759c-0.969-2.884-1.431-6.037-1.485-9.2   c-0.613-31.655-1.227-63.343-1.829-95.02c0.806-1.032,1.635-2.065,2.453-3.098c0.893,1.119,1.797,2.249,2.69,3.368   c15.128,66.087,30.3,133.1,45.482,200.94c13.73-0.054,27.459-0.108,41.2-0.15c11.599-66.722,23.209-134.186,34.84-202.307   c1.119-1.506,2.238-3.013,3.368-4.53c0.204,0.517,0.71,0.624,1.227,0.603c0.925,1.248,1.355,2.421,1.388,3.615   c0.571,30.633,1.141,61.278,1.722,91.9c0.162,9.082-1.119,15.58-3.885,19.336c-1.485,1.744-3.271,3.239-5.574,4.476   c-0.796,0.549-1.893,0.969-3.41,1.41c0.548,28.471,1.076,56.93,1.625,85.38c42.641-0.13,85.294-0.28,127.946-0.377   c-0.485-28.89-0.979-57.78-1.474-86.681c-1.421-0.506-3.056-1.421-4.809-3.142c-0.829-0.796-2.056-2.109-3.508-3.701   c-4.024-5.035-6.165-11.588-6.305-19.669c-1.614-93.234-3.228-186.512-4.842-279.821c-0.086-4.315,0.355-8.404,1.507-12.277   c1.065-3.873,2.507-8.038,4.261-12.503c1.872-4.358,4.552-8.371,8.253-12.213c-0.441-26.136-0.904-52.272-1.345-78.418   c-46.709,4.648-93.288,10.018-139.674,16.205c-8.823,58.372-17.635,116.325-26.437,173.804c-0.56,0.441-1.13,0.893-1.7,1.335   c-0.71-0.323-1.431-0.646-2.141-0.969c-10.405-55.617-20.81-110.773-31.193-165.454c-47.784,7.187-95.343,15.289-142.665,24.468   c0.441,23.672,0.861,47.344,1.291,71.015c3.949,2.056,6.8,4.918,8.479,8.587c1.765,3.562,3.142,7.166,4.11,10.717   c0.969,3.54,1.539,7.177,1.614,11.104c1.571,85.423,3.131,170.781,4.713,256.086c0.097,5.788-1.313,11.254-4.239,16.408   c-2.927,5.144-5.897,8.317-9.006,9.641C552.199,895.328,552.673,920.904,553.136,946.48z M785.701,1195.172   c0-27.051-8.371-46.591-25.092-58.642c-6.047-4.326-21.434-10.459-46.171-18.356c-16.56-5.326-24.823-13.224-24.823-23.694   c0-14.214,4.896-21.315,14.677-21.315c4.271,0,7.478,1.474,9.619,4.444c2.13,2.959,3.185,6.413,3.185,10.362v20.734h62.203v-56.866   c-8.543-8.877-18.238-15.494-29.095-19.841c-12.632-5.132-29.632-7.693-50.98-7.693c-23.306,0-41.372,5.035-54.187,15.107   c-15.828,12.427-23.747,32.968-23.747,61.59c0,26.641,8.339,45.31,25.016,55.972c1.948,1.184,17.474,6.607,46.58,16.291   c16.506,5.52,24.758,15.289,24.758,29.31c0,7.51-1.119,13.181-3.336,17.011c-2.238,3.863-5.928,5.788-11.082,5.788   c-3.207,0-6.273-1.14-9.211-3.4c-2.926-2.27-4.401-5.197-4.401-8.737v-27.556h-65.668v61.611   c8.899,9.275,18.701,16.194,29.375,20.713c12.804,5.336,30.063,8.005,51.777,8.005   C758.833,1276.01,785.701,1249.067,785.701,1195.172z M977.067,1114.918c0-25.275-2.668-43.125-8.005-53.595   c-10.513-20.745-32.657-31.095-66.464-31.095h-95.548v37.896c2.313,1.195,4.003,2.668,5.078,4.455   c1.947,2.959,2.926,6.703,2.926,11.244v129.7c0,2.787-0.581,5.24-1.732,7.414c-1.151,2.184-2.787,3.55-4.928,4.143v41.759   l84.863,0.29v-39.682c-2.012-0.387-4.099-1.668-6.294-3.852c-1.453-1.356-2.636-2.658-3.54-3.842   c-0.914-1.194-1.377-2.561-1.377-4.153v-11.254c0-2.357,0.538-4.143,1.603-5.327c0.527-0.592,2.056-0.892,4.552-0.892h32.656   c21.057,0,36.229-8.781,45.504-26.351C973.495,1158.151,977.067,1139.203,977.067,1114.918z M1160.978,1030.226H995.749v37.068   c2.324,1.571,4.143,3.508,5.476,5.767c1.335,2.281,2.27,4.099,2.798,5.498c0.538,1.388,0.797,3.163,0.797,5.326v130.464   c0,1.775-0.259,3.454-0.797,5.046c-0.355,0.979-1.108,2.432-2.27,4.293c-1.141,1.883-2.528,3.228-4.121,4.013v39.424h163.346   v-85.282h-62.73v16.72c0,2.798-0.323,5.014-0.947,6.714c-0.624,1.689-1.635,3.701-3.066,5.972c-1.421,2.302-3.11,3.938-5.068,4.928   c-1.97,0.99-3.647,1.506-5.068,1.506h-6.402c-3.034,0-4.809-0.409-5.337-1.195c-0.366-0.398-0.538-1.689-0.538-3.873v-5.67v-27.998   c0-1.979,0.129-3.722,0.398-5.219c0.258-1.485,0.581-2.528,0.947-3.12c0.527-1.991,1.603-2.981,3.217-2.981h40.274v-45.6h-40.038   c-1.958,0-3.293-0.387-4.003-1.195c-0.538-0.58-0.796-2.27-0.796-5.035v-4.132v-22.51v-5.336c0-0.99,0.172-2.056,0.527-3.261   c0.355-0.581,2.205-0.871,5.541-0.871h5.014c1.776,0,3.573,0.387,5.423,1.173c1.851,0.796,3.303,1.969,4.357,3.562   c1.765,2.766,2.808,4.53,3.175,5.326c0.699,1.582,1.044,3.454,1.044,5.628v11.836h64.075V1030.226z M1336.848,1170.004h-61.922   v37.304c0,3.949-1.249,7.306-3.734,10.072c-2.496,2.766-5.348,4.153-8.554,4.153c-3.723,0-6.886-1.334-9.469-4.003   c-2.582-2.658-3.873-5.972-3.873-9.931v-119.338c0-4.143,1.108-7.64,3.346-10.512c2.216-2.852,5.197-4.283,8.941-4.283   c3.906,0,7.112,1.377,9.609,4.143c2.486,2.765,3.734,6.208,3.734,10.361v26.061h61.654v-61.299   c-10.674-11.255-22.865-19.045-36.573-23.392c-10.663-3.357-24.092-5.036-40.296-5.036c-22.241,0-40.038,4.842-53.38,14.505   c-16.194,11.653-24.296,29.719-24.296,54.197v99.787c0,25.867,7.166,45.762,21.488,59.674   c14.321,13.934,34.389,20.874,60.191,20.874c16.549,0,30.3-1.872,41.232-5.616c10.943-3.755,21.574-10.954,31.903-21.627V1170.004z    M1442.264,1030.823h-86.746v36.465c2.313,1.572,4.153,3.519,5.476,5.767c1.335,2.281,2.27,4.121,2.808,5.499   c0.527,1.388,0.797,3.163,0.797,5.347v130.453c0,1.775-0.269,3.454-0.797,5.036c-0.366,0.99-1.119,2.421-2.281,4.293   c-1.151,1.883-2.54,3.228-4.132,4.013v39.435h83.023v-39.435c-1.614-0.785-2.948-2.077-4.013-3.841   c-1.065-1.797-1.861-3.422-2.41-4.906c-0.538-1.485-0.796-3.013-0.796-4.594v-130.453c0-1.979,0.354-3.852,1.076-5.638   c0.711-1.786,1.636-3.658,2.787-5.649c1.172-1.969,2.905-3.755,5.207-5.327V1030.823z M1640.846,1226.558   c-1.786-1.367-3.379-3.303-4.799-5.767c-1.431-2.474-2.216-3.906-2.41-4.304c-0.517-1.183-0.882-2.453-1.065-3.841l-34.69-182.412   h-97.151l-31.236,185.963l-1.592,5.628c-0.893,1.775-2.152,3.152-3.745,4.143v41.167h72.866v-41.469   c-0.721,0-1.776-0.388-3.207-1.195c-0.71-0.398-1.42-0.893-2.141-1.495c-2.141-1.603-3.185-3.809-3.185-6.607v-3.303   c0-2.195,0.699-4.303,2.142-6.305c0.527-0.818,0.968-1.302,1.323-1.517c1.065-0.785,1.947-1.195,2.668-1.195h22.144   c0.711,0,1.776,0.506,3.207,1.496c0.355,0.204,0.893,0.592,1.603,1.194c1.431,1.98,2.142,4.067,2.142,6.241v3.271   c0,2.378-0.851,4.519-2.54,6.402c-1.7,1.883-3.153,2.938-4.412,3.121v41.361h84.078V1226.558z M1827.414,1153.418h-55.51v44.707   c0,3.163-0.226,5.724-0.678,7.715c-0.441,1.969-1.28,3.938-2.529,5.918c-1.259,1.969-2.851,3.454-4.809,4.433   c-1.958,1.001-3.659,1.495-5.057,1.495h-6.413c-3.024,0-4.809-0.409-5.337-1.205c-0.345-0.387-0.538-1.679-0.538-3.852v-5.639   v-123.082c0-3.949,1.334-7.714,4.002-11.277c1.421-2.173,3.11-3.948,5.079-5.337v-36.476h-85.961v36.476   c2.324,1.571,4.153,3.508,5.476,5.767c1.345,2.281,2.281,4.11,2.809,5.488c0.538,1.388,0.796,3.152,0.796,5.337v130.463   c0,1.776-0.258,3.443-0.796,5.036c-0.355,0.99-1.119,2.421-2.271,4.303c-1.151,1.884-2.528,3.229-4.132,4.014v39.424h155.868   V1153.418z M1843.797,958.567c26.566,0,48.753-4.11,66.55-12.202c17.699-8.091,35.056-23.445,52.013-46.095   c0.958-54.262,1.905-108.567,2.873-162.861c-33.313-1.507-66.636-2.862-99.992-4.057c-0.409,27.094-0.839,54.209-1.259,81.302   c-0.118,8.608-2.162,15.828-6.305,21.767c-4.143,6.079-8.737,8.888-13.912,8.79c-6.069-0.097-11.093-3.056-15.161-8.909   c-4.068-5.993-6.091-13.202-5.972-21.874c1.248-87.252,2.486-174.525,3.734-261.82c0.118-9.092,2.065-16.57,5.832-22.671   c3.669-6.111,8.5-8.834,14.633-8.447c6.337,0.42,11.492,3.799,15.473,10.093c3.981,6.294,5.811,13.944,5.671,22.993   c-0.291,18.938-0.571,37.875-0.883,56.812c33.323,1.829,66.593,3.895,99.83,6.208c0.753-43.803,1.517-87.607,2.292-131.421   c-16.871-25.737-36.326-44.481-58.426-55.919c-17.227-8.812-39.026-14.482-65.442-16.592c-36.218-2.894-65.398,5.821-87.499,25.953   c-26.781,24.166-40.446,63.827-41.027,118.251c-0.818,73.92-1.625,147.83-2.432,221.729c-0.624,57.49,10.47,101.863,33.141,132.691   C1770.307,943.288,1802.306,958.599,1843.797,958.567z M2030.25,1030.815h-180.949v105.425h44.836v-41.167v-4.433   c0-2.765,0.624-5.423,1.861-7.994c0.538-0.99,1.69-1.98,3.465-2.97c1.786-0.979,3.379-1.377,4.799-1.173h2.41   c1.431,0.194,2.228,0.474,2.41,0.871c0.366,0.807,0.527,2.184,0.527,4.164v5.347v125.449c0,2.174-0.527,4.25-1.593,6.23   c-0.355,0.786-0.99,1.775-1.872,2.97c-1.97,2.561-4.272,3.949-6.952,4.153v39.435h81.151v-39.435   c-2.68-0.204-5.025-1.635-7.07-4.304c-2.044-2.657-3.077-5.692-3.077-9.049v-124.868v-3.852c0-2.776,0.182-4.552,0.538-5.348   c0.161-0.592,1.054-0.893,2.658-0.893h1.872c1.431-0.194,3.024,0.204,4.799,1.195c1.775,0.99,2.937,1.969,3.475,2.958   c1.237,2.561,1.872,5.23,1.872,7.995v4.443v40.274h44.837V1030.815z M2213.604,1030.223h-63.236v36.282l-10.696,32.409   c-0.366,1.797-1.065,2.679-2.141,2.679c-1.42,0-2.302-0.883-2.658-2.679l-11.223-33.011v-35.679h-71.79v40.973   c1.431,0.194,2.895,0.979,4.412,2.378c1.507,1.377,2.582,2.916,3.196,4.594c0.624,1.689,1.291,3.422,2.001,5.197l39.23,97.076   v33.839c0,1.593-0.258,2.873-0.785,3.874c-0.194,0.398-1.441,2.173-3.744,5.326l-4.272,4.164v39.478h81.678v-38.283l-3.744-4.164   c-2.669-3.368-4.186-5.348-4.541-5.939c-0.539-1.194-0.786-2.658-0.786-4.455v-34.432l39.499-93.514   c1.776-4.357,2.927-6.919,3.465-7.726c0.882-1.388,1.873-2.571,2.948-3.55l3.185-2.389V1030.223z M2277.241,867.364   c-2.862-2.808-5.315-6.692-7.554-11.577c-2.227-5.014-3.368-7.779-3.668-8.65c-0.861-2.378-1.313-4.864-1.561-7.586   c-16.366-120.091-32.592-242.861-48.743-367.956c-51.701-8.834-103.682-16.506-155.921-23.155   c-19.228,128.075-38.434,257.774-57.576,388.894c-0.947,3.927-1.905,7.865-2.84,11.793c-1.496,3.701-3.562,6.596-6.123,8.672   c-0.527,29.192-1.055,58.383-1.593,87.574c39.058,0.097,78.106,0.227,117.143,0.377c0.56-28.546,1.108-57.103,1.657-85.67   c-1.119-0.033-2.808-0.85-5.1-2.604c-1.097-0.818-2.184-1.894-3.379-3.217c-3.368-3.357-4.993-7.962-4.874-13.805   c0.033-2.27,0.075-4.519,0.119-6.779c0.097-4.551,1.291-8.952,3.69-13.019c0.926-1.518,1.668-2.529,2.271-3.024   c1.754-1.496,3.185-2.346,4.294-2.303c11.879,0.485,23.758,0.979,35.626,1.485c1.119,0.054,2.808,1.152,5.1,3.315   c0.484,0.398,1.388,1.216,2.464,2.539c2.249,4.068,3.271,8.469,3.174,12.826c-0.021,2.216-0.064,4.433-0.108,6.649   c-0.107,4.864-1.495,9.168-4.304,12.923c-2.787,3.755-5.154,5.875-7.188,6.198c-0.538,28.201-1.076,56.403-1.625,84.605   c45.063,0.172,90.114,0.366,135.177,0.592C2276.272,920.098,2276.757,893.737,2277.241,867.364z M2432.735,947.309   c0.312-23.758,0.646-47.505,0.958-71.274c-3.4-1.979-5.885-4.713-7.543-8.231c-1.657-3.496-2.497-8.822-2.399-16.021   c0.333-24.285,0.678-48.57,1.001-72.866c1.022-0.774,2.023-1.549,3.045-2.335c0.807,1.151,1.625,2.302,2.454,3.454   c18.518,57.458,37.186,113.237,56.08,167.08c36.885,0.269,73.781,0.538,110.666,0.839c0.129-99.518,0.28-199.036,0.419-298.565   c0-4.799,1.668-9.189,5.003-13.106c2.442-2.926,5.272-4.401,8.296-4.487v-63.462c-36.099-11.739-72.382-22.563-108.879-32.603   c-0.226,22.972-0.441,45.945-0.667,68.917c1.657,2.787,3.314,5.563,4.96,8.35c2.518,5.38,3.863,8.942,4.143,10.76   c0.193,1.345,0.366,3.454,0.344,6.295c-0.215,24.51-0.441,49.033-0.646,73.565c-0.861,0.721-1.722,1.453-2.593,2.184   c-2.485-0.409-3.874-1.183-4.153-2.324c-17.593-58.598-34.98-119.068-52.239-181.185c-40.145-10.168-80.495-19.433-121.06-27.868   c-0.398,23.263-0.807,46.526-1.205,69.778c6.575,7.187,10.922,15.881,13.052,26.071c0.829,4.573,1.249,8.597,1.302,11.717   c0.15,3.25,0.193,6.617,0.14,9.953c-1.324,78.278-2.637,156.492-3.949,234.652c-0.108,5.616-1.7,10.9-4.8,15.548   c-3.11,4.777-6.176,7.661-9.307,8.726c-0.441,25.081-0.871,50.162-1.302,75.222C2360.16,946.502,2396.442,946.9,2432.735,947.309z    M1347.206,613.728c0,3.54,0.119,7.219,0.237,11.029c0.108,3.68,0.624,6.499,1.56,8.339c1.442,2.539,3.475,3.938,6.036,3.916   c6.37-0.043,12.74-0.064,19.11-0.096c6.649-0.032,11.04-5.423,13.073-16.043c2.033-10.76,3.045-23.639,3.034-38.789   c-0.032-16.419-0.958-29.159-2.712-38.068c-2.884-14.569-8.145-21.897-15.742-21.853c-6.079,0.032-12.169,0.075-18.27,0.14   c-2.668,0.021-4.519,1.732-5.734,5.283c-0.517,1.829-0.818,3.82-0.797,6.09c0,3.12,0,5.509,0.022,7.359   C1347.077,565.265,1347.142,589.497,1347.206,613.728z" id="path15"></path>	<g id="g33">		<path style="fill:#ED2124;" d="M2799.062,448.86c-46.965-126.575-306.792-270.59-1005.989-308.201l-16.467,14.8    c664.56,36.957,911.581,177.845,956.27,301.695c0,0,33.883,126.03,33.883,382.944c0,256.902-33.883,396.125-33.883,396.125    c-43.47,152.511-741.603,310.96-1325.649,310.96c-584.057,0-1258.271-167.154-1305.474-310.96c0,0-33.872-121.802-33.872-396.125    c0-274.345,33.872-382.944,33.872-382.944c42.975-165.734,380.254-310.96,1317.03-310.96c9.429,0,18.789,0.019,28.095,0.052    l-15.216-14.953c-4.252-0.006-8.514-0.01-12.79-0.01c-983.925,0-1338.172,148.325-1383.3,317.577    c0,0-35.572,110.913-35.572,391.09c0,280.165,35.572,404.561,35.572,404.561c49.571,146.872,757.71,317.577,1371.142,317.577    c613.442,0,1346.695-161.807,1392.349-317.577c0,0,35.583-142.181,35.583-404.561S2799.062,448.86,2799.062,448.86z" id="path17"></path>		<path style="fill:#ED2124;" d="M191.092,1271.941h299.552v-48.29H153.635c0.098,0.373,0.15,0.56,0.15,0.56    C158.896,1239.921,171.663,1255.919,191.092,1271.941z" id="path19"></path>		<path style="fill:#ED2124;" d="M490.644,1127.22H136.917c2.382,18.874,4.781,34.887,6.993,48.129h346.735V1127.22z" id="path21"></path>		<path style="fill:#ED2124;" d="M490.655,1030.575H127.556c1.233,17.315,2.591,33.408,4.02,48.301h359.079V1030.575z" id="path23"></path>		<path style="fill:#ED2124;" d="M2354.491,1271.941h291.936c18.143-15.844,29.928-31.82,34.422-47.73c0,0,0.046-0.193,0.134-0.571    h-326.492V1271.941z" id="path25"></path>		<path style="fill:#ED2124;" d="M2354.491,1175.284h335.562c2.17-13.486,4.548-29.711,6.929-48.602h-342.492V1175.284z" id="path27"></path>		<path style="fill:#ED2124;" d="M2706.543,1030.575h-352.052v47.806h347.902C2703.859,1063.536,2705.26,1047.593,2706.543,1030.575    z" id="path29"></path>		<polygon style="fill:#ED2124;" points="1487.628,168.142 1536.527,215.805 1518.439,321.23 1613.127,271.455 1707.813,321.23     1689.726,215.805 1734.765,175.321 1757.977,154.456 1766.326,146.952 1716.925,137.06 1660.47,125.755 1613.127,29.831     1565.783,125.755 1523.2,131.945 1459.927,141.142 1465.254,146.334   " id="polygon31"></polygon>	</g></g></svg>